<?xml version="1.0" encoding="utf-8"?>
<!-- Generator: Adobe Illustrator 15.1.0, SVG Export Plug-In . SVG Version: 6.00 Build 0)  -->
<!DOCTYPE svg PUBLIC "-//W3C//DTD SVG 1.1//EN" "http://www.w3.org/Graphics/SVG/1.1/DTD/svg11.dtd">
<svg version="1.1" id="Layer_1" xmlns="http://www.w3.org/2000/svg" xmlns:xlink="http://www.w3.org/1999/xlink" x="0px" y="0px"
	 width="400px" height="400px" viewBox="0 0 400 400" enable-background="new 0 0 400 400" xml:space="preserve">
<g>
	<g>
		<path fill="#2B81D8" d="M28.446,354.417H13.409v-8.064h39.864v8.064H38.077v44.724h-9.631V354.417z"/>
		<path fill="#2B81D8" d="M75.438,399.141l-0.629-4.235h-0.231C72.228,397.885,68.23,400,63.296,400
			c-7.672,0-11.98-5.563-11.98-11.352c0-9.637,8.536-14.49,22.633-14.414v-0.629c0-2.505-1.021-6.655-7.753-6.655
			c-3.76,0-7.673,1.176-10.264,2.821l-1.878-6.266c2.821-1.725,7.757-3.371,13.785-3.371c12.218,0,15.742,7.758,15.742,16.061
			v13.779c0,3.448,0.157,6.814,0.547,9.166H75.438z M74.182,380.5c-6.811-0.156-13.313,1.329-13.313,7.125
			c0,3.762,2.427,5.482,5.48,5.482c3.843,0,6.656-2.503,7.521-5.245c0.234-0.706,0.311-1.49,0.311-2.115V380.5z"/>
		<path fill="#2B81D8" d="M93.453,399.141c0.154-2.589,0.313-6.815,0.313-10.729v-44.876h9.627v22.712h0.158
			c2.355-3.682,6.499-6.112,12.225-6.112c9.315,0,15.973,7.758,15.893,19.348c0,13.702-8.689,20.518-17.306,20.518
			c-4.936,0-9.32-1.878-12.063-6.577h-0.159l-0.469,5.718H93.453z M103.393,383.396c0,0.785,0.083,1.567,0.24,2.273
			c1.018,3.836,4.389,6.735,8.54,6.735c6.028,0,9.705-4.857,9.705-12.532c0-6.735-3.207-12.216-9.635-12.216
			c-3.91,0-7.438,2.816-8.534,7.051c-0.158,0.703-0.316,1.566-0.316,2.506V383.396z"/>
		<path fill="#2B81D8" d="M146.548,354.417h-15.037v-8.064h39.864v8.064h-15.192v44.724h-9.635V354.417z"/>
		<path fill="#2B81D8" d="M207.4,379.718c0,14.02-9.867,20.282-19.575,20.282c-10.808,0-19.109-7.441-19.109-19.656
			c0-12.53,8.22-20.209,19.735-20.209C199.81,360.135,207.4,368.126,207.4,379.718z M178.663,380.105
			c0,7.366,3.599,12.926,9.478,12.926c5.477,0,9.315-5.406,9.315-13.08c0-5.954-2.662-12.764-9.239-12.764
			C181.397,367.188,178.663,373.765,178.663,380.105z"/>
		<path fill="#2B81D8" d="M251.57,379.718c0,14.02-9.868,20.282-19.576,20.282c-10.808,0-19.105-7.441-19.105-19.656
			c0-12.53,8.221-20.209,19.733-20.209C243.976,360.135,251.57,368.126,251.57,379.718z M222.83,380.105
			c0,7.366,3.604,12.926,9.477,12.926c5.485,0,9.319-5.406,9.319-13.08c0-5.954-2.658-12.764-9.24-12.764
			C225.575,367.188,222.83,373.765,222.83,380.105z"/>
		<path fill="#2B81D8" d="M259.485,343.535h9.706v55.605h-9.706V343.535z"/>
		<path fill="#2B81D8" d="M279.298,399.141c0.154-2.589,0.312-6.815,0.312-10.729v-44.876h9.631v22.712h0.158
			c2.349-3.682,6.503-6.112,12.217-6.112c9.323,0,15.978,7.758,15.9,19.348c0,13.702-8.692,20.518-17.306,20.518
			c-4.931,0-9.324-1.878-12.059-6.577h-0.163l-0.472,5.718H279.298z M289.24,383.396c0,0.785,0.079,1.567,0.237,2.273
			c1.022,3.836,4.388,6.735,8.543,6.735c6.021,0,9.703-4.857,9.703-12.532c0-6.735-3.209-12.216-9.629-12.216
			c-3.913,0-7.442,2.816-8.537,7.051c-0.159,0.703-0.317,1.566-0.317,2.506V383.396z"/>
		<path fill="#2B81D8" d="M346.884,399.141l-0.626-4.235h-0.237c-2.347,2.979-6.341,5.095-11.276,5.095
			c-7.671,0-11.982-5.563-11.982-11.352c0-9.637,8.542-14.49,22.64-14.414v-0.629c0-2.505-1.025-6.655-7.761-6.655
			c-3.752,0-7.676,1.176-10.256,2.821l-1.878-6.266c2.818-1.725,7.752-3.371,13.783-3.371c12.212,0,15.744,7.758,15.744,16.061
			v13.779c0,3.448,0.154,6.814,0.549,9.166H346.884z M345.635,380.5c-6.815-0.156-13.313,1.329-13.313,7.125
			c0,3.762,2.422,5.482,5.479,5.482c3.836,0,6.654-2.503,7.521-5.245c0.233-0.706,0.313-1.49,0.313-2.115V380.5z"/>
		<path fill="#2B81D8" d="M365.21,373.295c0-5.169-0.075-8.848-0.313-12.299h8.378l0.321,7.287h0.311
			c1.875-5.406,6.341-8.148,10.42-8.148c0.932,0,1.485,0.084,2.265,0.237v9.087c-0.779-0.158-1.647-0.315-2.821-0.315
			c-4.616,0-7.753,2.979-8.609,7.287c-0.161,0.861-0.319,1.875-0.319,2.977v19.733h-9.631V373.295z"/>
	</g>
	<g>
		<linearGradient id="SVGID_1_" gradientUnits="userSpaceOnUse" x1="77.2119" y1="10.8335" x2="267.7065" y2="231.6117">
			<stop  offset="0" style="stop-color:#2B81D8"/>
			<stop  offset="1" style="stop-color:#277BC1"/>
		</linearGradient>
		<path fill="url(#SVGID_1_)" d="M353.144,101.269v103.748c0,55.81-45.307,101.056-101.196,101.056H148.053
			c-55.89,0-101.196-45.246-101.196-101.056V101.269c0-55.813,45.307-101.056,101.196-101.056h103.895
			C307.837,0.213,353.144,45.456,353.144,101.269z"/>
		<g>
			<polygon fill="#FFFFFF" points="147.64,88.496 147.64,99.906 100.042,99.906 100.042,124.623 88.619,124.623 88.619,88.496 			
				"/>
			<polygon fill="#FFFFFF" points="311.383,88.496 311.383,124.623 299.958,124.623 299.958,99.906 252.36,99.906 252.36,88.496 			
				"/>
			<g>
				<path fill="#FFFFFF" d="M311.383,217.787H88.619v-81.756h70.444v-35.177h81.873v35.177h70.446V217.787z M100.042,206.381
					h199.916v-58.942h-70.447v-35.173h-59.021v35.173h-70.447V206.381z"/>
			</g>
		</g>
		<path opacity="0.4" fill="#FFFFFF" d="M251.947,0H148.053C92.163,0,46.856,45.243,46.856,101.054v1.952
			c0-55.811,45.307-101.054,101.196-101.054h103.895c55.89,0,101.196,45.243,101.196,101.054v-1.952
			C353.144,45.243,307.837,0,251.947,0z"/>
		<path opacity="0.4" fill="#277BC1" d="M251.947,306.286H148.053c-55.89,0-101.196-45.246-101.196-101.055v-1.953
			c0,55.811,45.307,101.056,101.196,101.056h103.895c55.89,0,101.196-45.245,101.196-101.056v1.953
			C353.144,261.04,307.837,306.286,251.947,306.286z"/>
	</g>
</g>
</svg>
