<?xml version="1.0" encoding="utf-8"?>
<!-- Generator: Adobe Illustrator 15.1.0, SVG Export Plug-In . SVG Version: 6.00 Build 0)  -->
<!DOCTYPE svg PUBLIC "-//W3C//DTD SVG 1.1//EN" "http://www.w3.org/Graphics/SVG/1.1/DTD/svg11.dtd">
<svg version="1.1" id="Layer_1" xmlns="http://www.w3.org/2000/svg" xmlns:xlink="http://www.w3.org/1999/xlink" x="0px" y="0px"
	 width="400px" height="100px" viewBox="0 0 400 100" enable-background="new 0 0 400 100" xml:space="preserve">
<g>
	<g>
		<path fill="#2B81D8" d="M136.95,37.258h-11.044v-5.924h29.278v5.924h-11.157v32.846h-7.077V37.258z"/>
		<path fill="#2B81D8" d="M171.465,70.104l-0.459-3.107h-0.176c-1.725,2.185-4.657,3.739-8.28,3.739
			c-5.639,0-8.801-4.084-8.801-8.342c0-7.074,6.27-10.639,16.622-10.583v-0.459c0-1.843-0.75-4.889-5.693-4.889
			c-2.763,0-5.639,0.863-7.535,2.071l-1.382-4.602c2.067-1.266,5.694-2.475,10.122-2.475c8.974,0,11.565,5.696,11.565,11.792v10.126
			c0,2.53,0.111,5.003,0.401,6.73H171.465z M170.542,56.413c-5.002-0.113-9.777,0.979-9.777,5.235c0,2.762,1.785,4.025,4.026,4.025
			c2.817,0,4.889-1.839,5.523-3.853c0.173-0.516,0.228-1.094,0.228-1.551V56.413z"/>
		<path fill="#2B81D8" d="M184.695,70.104c0.114-1.899,0.229-5.004,0.229-7.882V29.264H192v16.681h0.115
			c1.725-2.703,4.775-4.489,8.974-4.489c6.846,0,11.732,5.696,11.678,14.209c0,10.066-6.386,15.07-12.714,15.07
			c-3.623,0-6.844-1.38-8.858-4.832h-0.113l-0.347,4.2H184.695z M192,58.542c0,0.575,0.059,1.148,0.174,1.668
			c0.745,2.817,3.222,4.946,6.269,4.946c4.432,0,7.133-3.566,7.133-9.203c0-4.949-2.358-8.975-7.076-8.975
			c-2.874,0-5.461,2.07-6.266,5.178c-0.118,0.518-0.233,1.15-0.233,1.841V58.542z"/>
		<path fill="#2B81D8" d="M223.693,37.258h-11.045v-5.924h29.281v5.924h-11.16v32.846h-7.076V37.258z"/>
		<path fill="#2B81D8" d="M268.39,55.838c0,10.297-7.249,14.897-14.381,14.897c-7.938,0-14.036-5.465-14.036-14.436
			c0-9.206,6.042-14.843,14.496-14.843C262.81,41.457,268.39,47.326,268.39,55.838z M247.279,56.125
			c0,5.409,2.646,9.492,6.961,9.492c4.026,0,6.844-3.968,6.844-9.605c0-4.372-1.956-9.376-6.787-9.376
			C249.291,46.635,247.279,51.467,247.279,56.125z"/>
		<path fill="#2B81D8" d="M300.831,55.838c0,10.297-7.247,14.897-14.379,14.897c-7.94,0-14.036-5.465-14.036-14.436
			c0-9.206,6.041-14.843,14.495-14.843C295.252,41.457,300.831,47.326,300.831,55.838z M279.721,56.125
			c0,5.409,2.648,9.492,6.961,9.492c4.026,0,6.846-3.968,6.846-9.605c0-4.372-1.957-9.376-6.787-9.376
			C281.734,46.635,279.721,51.467,279.721,56.125z"/>
		<path fill="#2B81D8" d="M306.643,29.264h7.134v40.84h-7.134V29.264z"/>
		<path fill="#2B81D8" d="M321.194,70.104c0.115-1.899,0.231-5.004,0.231-7.882V29.264h7.074v16.681h0.114
			c1.726-2.703,4.774-4.489,8.973-4.489c6.846,0,11.734,5.696,11.678,14.209c0,10.066-6.384,15.07-12.712,15.07
			c-3.625,0-6.846-1.38-8.857-4.832h-0.116l-0.345,4.2H321.194z M328.5,58.542c0,0.575,0.058,1.148,0.171,1.668
			c0.75,2.817,3.223,4.946,6.271,4.946c4.428,0,7.132-3.566,7.132-9.203c0-4.949-2.359-8.975-7.073-8.975
			c-2.878,0-5.467,2.07-6.271,5.178c-0.115,0.518-0.229,1.15-0.229,1.841V58.542z"/>
		<path fill="#2B81D8" d="M370.838,70.104l-0.462-3.107h-0.173c-1.724,2.185-4.657,3.739-8.283,3.739c-5.637,0-8.8-4.084-8.8-8.342
			c0-7.074,6.271-10.639,16.623-10.583v-0.459c0-1.843-0.749-4.889-5.694-4.889c-2.762,0-5.637,0.863-7.534,2.071l-1.382-4.602
			c2.07-1.266,5.695-2.475,10.123-2.475c8.974,0,11.564,5.696,11.564,11.792v10.126c0,2.53,0.111,5.003,0.401,6.73H370.838z
			 M369.915,56.413c-5.002-0.113-9.778,0.979-9.778,5.235c0,2.762,1.783,4.025,4.026,4.025c2.819,0,4.89-1.839,5.523-3.853
			c0.172-0.516,0.229-1.094,0.229-1.551V56.413z"/>
		<path fill="#2B81D8" d="M384.296,51.122c0-3.796-0.057-6.5-0.229-9.032h6.153l0.231,5.352h0.228
			c1.384-3.969,4.661-5.984,7.653-5.984c0.688,0,1.091,0.06,1.667,0.176v6.669c-0.576-0.114-1.207-0.229-2.069-0.229
			c-3.395,0-5.695,2.186-6.326,5.35c-0.119,0.633-0.231,1.379-0.231,2.184v14.497h-7.077V51.122z"/>
	</g>
	<g>
		<linearGradient id="SVGID_1_" gradientUnits="userSpaceOnUse" x1="9.9111" y1="3.5376" x2="72.1058" y2="75.6196">
			<stop  offset="0" style="stop-color:#2B81D8"/>
			<stop  offset="1" style="stop-color:#277BC1"/>
		</linearGradient>
		<path fill="url(#SVGID_1_)" d="M100,33.063v33.873c0,18.221-14.793,32.993-33.04,32.993H33.04C14.793,99.93,0,85.158,0,66.937
			V33.063C0,14.842,14.793,0.07,33.04,0.07h33.92C85.207,0.07,100,14.842,100,33.063z"/>
		<g>
			<polygon fill="#FFFFFF" points="32.905,28.894 32.905,32.618 17.364,32.618 17.364,40.688 13.635,40.688 13.635,28.894 			"/>
			<polygon fill="#FFFFFF" points="86.365,28.894 86.365,40.688 82.636,40.688 82.636,32.618 67.095,32.618 67.095,28.894 			"/>
			<g>
				<path fill="#FFFFFF" d="M86.365,71.105h-72.73V44.413h23V32.929h26.73v11.484h23V71.105z M17.364,67.381h65.271V48.138H59.635
					V36.654h-19.27v11.484H17.364V67.381z"/>
			</g>
		</g>
		<path opacity="0.4" fill="#FFFFFF" d="M66.96,0H33.04C14.793,0,0,14.771,0,32.993v0.638C0,15.409,14.793,0.638,33.04,0.638h33.92
			c18.247,0,33.04,14.771,33.04,32.993v-0.638C100,14.771,85.207,0,66.96,0z"/>
		<path opacity="0.4" fill="#277BC1" d="M66.96,100H33.04C14.793,100,0,85.228,0,67.006v-0.637C0,84.59,14.793,99.361,33.04,99.361
			h33.92c18.247,0,33.04-14.771,33.04-32.992v0.637C100,85.228,85.207,100,66.96,100z"/>
	</g>
</g>
</svg>
